<?xml version="1.0" standalone="no"?>
<!DOCTYPE svg PUBLIC "-//W3C//DTD SVG 20010904//EN"
 "http://www.w3.org/TR/2001/REC-SVG-20010904/DTD/svg10.dtd">
<svg version="1.0" xmlns="http://www.w3.org/2000/svg"
 width="552.000000pt" height="452.000000pt" viewBox="0 0 552.000000 452.000000"
 preserveAspectRatio="xMidYMid meet">

<g transform="translate(0.000000,452.000000) scale(0.100000,-0.100000)"
fill="red" stroke="none">
<path d="M565 4242 c-117 -40 -219 -130 -271 -240 l-28 -57 -7 -310 c-9 -400
-9 -2241 0 -2625 l7 -295 28 -58 c42 -87 122 -167 215 -216 l79 -41 1974 -4
c1085 -2 2063 -1 2174 2 l200 7 76 38 c90 44 171 126 214 214 l28 58 7 310 c9
396 9 2101 0 2565 l-7 355 -28 58 c-42 87 -122 167 -215 216 l-79 41 -2159 0
c-2021 -1 -2161 -2 -2208 -18z m4016 -439 c15 -15 10 -22 -313 -360 -713 -747
-1315 -1246 -1503 -1247 -174 -1 -621 349 -1266 994 -314 313 -571 589 -566
605 6 18 369 22 2024 21 1238 -1 1615 -4 1624 -13z m-2968 -1361 l58 -51 -123
-138 c-200 -224 -455 -535 -717 -875 -62 -82 -115 -148 -117 -148 -2 0 -4 475
-4 1055 l0 1054 423 -423 c232 -233 448 -446 480 -474z m3196 -159 l0 -1058
-29 35 c-15 19 -94 121 -175 225 -231 297 -512 637 -677 818 l-81 88 59 51
c86 75 770 757 834 832 30 36 58 65 63 65 4 1 7 -475 6 -1056z m-2628 -296
c222 -147 382 -223 524 -248 146 -25 377 71 692 287 57 39 98 61 108 58 30
-12 327 -360 621 -729 241 -303 374 -478 374 -491 0 -14 -1030 -24 -2422 -24
-762 0 -1068 3 -1068 11 0 43 974 1239 1010 1239 4 0 76 -46 161 -103z"/>
</g>
</svg>
